<?xml version="1.0" encoding="UTF-8"?>
<svg width="100px" height="100px" viewBox="0 0 100 100" version="1.1" xmlns="http://www.w3.org/2000/svg" xmlns:xlink="http://www.w3.org/1999/xlink">
    <title>画板</title>
    <g id="画板" stroke="none" stroke-width="1" fill="none" fill-rule="evenodd">
        <path d="M50,0 C77.6142375,0 100,22.3857625 100,50 C100,77.6142375 77.6142375,100 50,100 C22.3857625,100 0,77.6142375 0,50 C0,22.3857625 22.3857625,0 50,0 Z M68.0683594,30.4316406 C62.719401,30.4316406 58.6315104,31.8873698 55.8046875,34.7988281 C52.0130208,38.235026 50.1171875,43.3808594 50.1171875,50.2363281 C50.1171875,56.9563802 52.0130208,62.1022135 55.8046875,65.6738281 C58.6315104,68.5852865 62.719401,70.0410156 68.0683594,70.0410156 C73.4173177,70.0410156 77.5052083,68.5852865 80.3320312,65.6738281 C84.1067708,62.1022135 85.9941406,56.9563802 85.9941406,50.2363281 C85.9941406,43.3808594 84.1067708,38.235026 80.3320312,34.7988281 C77.5052083,31.8873698 73.4173177,30.4316406 68.0683594,30.4316406 Z M21.78125,31.5742188 L14.0878906,31.5742188 L14.0878906,69 L21.78125,69 L21.78125,56.4824219 L25.5136719,52.6484375 L37.0664062,69 L47.1210938,69 L30.9980469,46.9863281 L46.3339844,31.5742188 L36.2285156,31.5742188 L21.78125,46.9863281 L21.78125,31.5742188 Z M68.0683594,37.0585938 C71.1660156,37.0585938 73.6246745,38.2054036 75.4443359,40.4990234 C77.2639974,42.7926432 78.1738281,46.0384115 78.1738281,50.2363281 C78.1738281,54.4511719 77.2639974,57.7011719 75.4443359,59.9863281 C73.6246745,62.2714844 71.1660156,63.4140625 68.0683594,63.4140625 C64.9707031,63.4140625 62.499349,62.2714844 60.6542969,59.9863281 C58.8092448,57.7011719 57.8867188,54.4511719 57.8867188,50.2363281 C57.8867188,46.0214844 58.8092448,42.7714844 60.6542969,40.4863281 C62.499349,38.2011719 64.9707031,37.0585938 68.0683594,37.0585938 Z" id="形状结合" fill="#1D78FF"></path>
    </g>
</svg>